<svg version="1.1" xmlns="http://www.w3.org/2000/svg" viewBox="0 0 253 256" width="253" height="256">
  <!-- svg-source:excalidraw -->
  
  <defs>
    <style class="style-fonts">
      
    </style>
    
  </defs>
  <rect x="0" y="0" width="253" height="256" fill="#ffffff"/><g stroke-linecap="round" transform="translate(10 10) rotate(0 116.5 33.5)"><path d="M16.75 0 C95.31 -1.43, 171.14 0.93, 216.25 0 M16.75 0 C73.35 2.13, 127.68 1.43, 216.25 0 M216.25 0 C226.69 -1.01, 234.49 5.46, 233 16.75 M216.25 0 C225.6 1.2, 234.33 7.03, 233 16.75 M233 16.75 C231.48 25.94, 234.28 37.42, 233 50.25 M233 16.75 C232.58 29.56, 234.03 43.04, 233 50.25 M233 50.25 C231.74 59.65, 226.06 66.55, 216.25 67 M233 50.25 C231.01 61.05, 227.26 68.48, 216.25 67 M216.25 67 C160.71 65.33, 107.75 67.75, 16.75 67 M216.25 67 C167.17 65.23, 117.97 64.9, 16.75 67 M16.75 67 C3.69 67.32, -1.09 61.53, 0 50.25 M16.75 67 C7.11 67.06, -1.85 62.64, 0 50.25 M0 50.25 C1.61 38.89, -1.12 31.02, 0 16.75 M0 50.25 C0.14 41.62, 0.42 31.76, 0 16.75 M0 16.75 C-0.38 7.26, 7.26 -0.57, 16.75 0 M0 16.75 C-0.01 5.09, 3.3 -0.35, 16.75 0" stroke="#e03131" stroke-width="2" fill="none"/></g><g stroke-linecap="round" transform="translate(56 176) rotate(0 58.5 35)"><path d="M17.5 0 C38.62 -2.11, 58.48 -1.37, 99.5 0 M17.5 0 C50.86 0.98, 82.33 0.22, 99.5 0 M99.5 0 C110.26 -0.65, 115.49 5.18, 117 17.5 M99.5 0 C112.82 -1.11, 118.62 4.73, 117 17.5 M117 17.5 C118.11 24.37, 116.67 33.85, 117 52.5 M117 17.5 C117.59 23.62, 117.41 30.63, 117 52.5 M117 52.5 C115.73 64.35, 113.11 68.89, 99.5 70 M117 52.5 C117.59 63.91, 112.97 70.99, 99.5 70 M99.5 70 C66.55 68.72, 38.34 71.58, 17.5 70 M99.5 70 C73.99 70.48, 47.28 69.45, 17.5 70 M17.5 70 C5.87 71.89, -1.44 63.51, 0 52.5 M17.5 70 C6.53 70.86, -1.59 64.07, 0 52.5 M0 52.5 C0.9 39.66, 0.5 27.05, 0 17.5 M0 52.5 C0.28 42.42, 0.11 31.05, 0 17.5 M0 17.5 C0.7 4.05, 7.45 1.37, 17.5 0 M0 17.5 C-1.69 5.49, 6.7 1.31, 17.5 0" stroke="#1971c2" stroke-width="2" fill="none"/></g></svg>